<svg width="69" height="109" viewBox="0 0 69 109" fill="none" xmlns="http://www.w3.org/2000/svg">
<path d="M0.5 10.5V94L52.5 107.5V92L18 82.5V66L32.5 70L39.5 72V56L18 50V31L32.5 35L52.5 40.5V25.5L0.5 10.5Z" fill="#FFEAEA"/>
<path d="M18 66V82.5L32.5 74.5V70L18 66Z" fill="#FF7777"/>
<path d="M18 31V50L32.5 44.5V35L18 31Z" fill="#FF7777"/>
<path d="M39.5 56V72L52.5 65.5V50L39.5 56Z" fill="#FF7777"/>
<path d="M52.5 25.5V40.5L68.5 31V16L52.5 25.5Z" fill="#FF7777"/>
<path d="M52.5 92V107.5L68.5 98V84L52.5 92Z" fill="#FF7777"/>
<path d="M18 50L39.5 56L52.5 50L32.5 44.5L18 50Z" fill="#FFC5C5"/>
<path d="M0.5 10.5L52.5 25.5L68.5 16L17 1.5L0.5 10.5Z" fill="#FFC5C5"/>
<path d="M18 82.5L52.5 92L68.5 84L32.5 74.5L18 82.5Z" fill="#FFC5C5"/>
<path d="M0.5 10.5V94L52.5 107.5M0.5 10.5L52.5 25.5M0.5 10.5L17 1.5L68.5 16M52.5 107.5V92M52.5 107.5L68.5 98V84M52.5 92L18 82.5M52.5 92L68.5 84M18 82.5V66L32.5 70M18 82.5L32.5 74.5M39.5 72V56M39.5 72L52.5 65.5V50M39.5 72L32.5 70M39.5 56L18 50M39.5 56L52.5 50M18 50V31L32.5 35M18 50L32.5 44.5M52.5 40.5V25.5M52.5 40.5L68.5 31V16M52.5 40.5L32.5 35M52.5 25.5L68.5 16M52.5 50L32.5 44.5M32.5 44.5V35M32.5 70V74.5M32.5 74.5L68.5 84" stroke="black"/>
</svg>
