<svg width="71" height="111" viewBox="0 0 71 111" fill="none" xmlns="http://www.w3.org/2000/svg">
    <path d="M1.5 11.5V95L53.5 108.5V93L19 83.5V67L33.5 71L40.5 73V57L19 51V32L33.5 36L53.5 41.5V26.5L1.5 11.5Z" fill="#FFEAEA"/>
    <path d="M19 67V83.5L33.5 75.5V71L19 67Z" fill="#940242"/>
    <path d="M19 32V51L33.5 45.5V36L19 32Z" fill="#940242"/>
    <path d="M40.5 57V73L53.5 66.5V51L40.5 57Z" fill="#940242"/>
    <path d="M53.5 26.5V41.5L69.5 32V17L53.5 26.5Z" fill="#940242"/>
    <path d="M53.5 93V108.5L69.5 99V85L53.5 93Z" fill="#940242"/>
    <path d="M19 51L40.5 57L53.5 51L33.5 45.5L19 51Z" fill="#FFC5C5"/>
    <path d="M1.5 11.5L53.5 26.5L69.5 17L18 2.5L1.5 11.5Z" fill="#FFC5C5"/>
    <path d="M19 83.5L53.5 93L69.5 85L33.5 75.5L19 83.5Z" fill="#FFC5C5"/>
    <path d="M1.5 11.5V95L53.5 108.5M1.5 11.5L53.5 26.5M1.5 11.5L18 2.5L69.5 17M53.5 108.5V93M53.5 108.5L69.5 99V85M53.5 93L19 83.5M53.5 93L69.5 85M19 83.5V67L33.5 71M19 83.5L33.5 75.5M40.5 73V57M40.5 73L53.5 66.5V51M40.5 73L33.5 71M40.5 57L19 51M40.5 57L53.5 51M19 51V32L33.5 36M19 51L33.5 45.5M53.5 41.5V26.5M53.5 41.5L69.5 32V17M53.5 41.5L33.5 36M53.5 26.5L69.5 17M53.5 51L33.5 45.5M33.5 45.5V36M33.5 71V75.5M33.5 75.5L69.5 85" stroke="black" stroke-width="3"/>
</svg>
